PathFileType	4	(X/Y/Z)	/Users/niels/Desktop/University/Third Semester/Perception and Action/Exam/Gymnastics Motion Tracking/Code for Gym Tracking/Analyzed Data/Webcam_Backflip/id2_4_baseline_Sports2D/id2_4_baseline_Sports2D_px_person00.trc
DataRate	CameraRate	NumFrames	NumMarkers	Units	OrigDataRate	OrigDataStartFrame	OrigNumFrames
29.87551867219917	29.87551867219917	9	22	m	29.87551867219917	120	241
Frame#	Time	Hip			RHip			RKnee			RAnkle			RBigToe			RSmallToe			RHeel			LHip			LKnee			LAnkle			LBigToe			LSmallToe			LHeel			Neck			Head			Nose			RShoulder			RElbow			RWrist			LShoulder			LElbow			LWrist		
		X1	Y1	Z1	X2	Y2	Z2	X3	Y3	Z3	X4	Y4	Z4	X5	Y5	Z5	X6	Y6	Z6	X7	Y7	Z7	X8	Y8	Z8	X9	Y9	Z9	X10	Y10	Z10	X11	Y11	Z11	X12	Y12	Z12	X13	Y13	Z13	X14	Y14	Z14	X15	Y15	Z15	X16	Y16	Z16	X17	Y17	Z17	X18	Y18	Z18	X19	Y19	Z19	X20	Y20	Z20	X21	Y21	Z21	X22	Y22	Z22
120	4.016666666666667	0.7832214152693807	-0.27473136713676294	0.0	0.7814481618395682	-0.277911158787149	0.0	0.7566759278945879	-0.4092746326476382	0.0	0.6495660464384954	-0.4268496103404265	0.0	0.6493649347178635	-0.4826952210414913	0.0	0.6417168841572376	-0.47331832331148077	0.0	0.6331355903965087	-0.41774466581251385	0.0	0.7814940529113952	-0.27502951234543005	0.0	0.7516674657144181	-0.39891956019891434	0.0	0.6548896534030957	-0.42226603154213344	0.0	0.6540391449198145	-0.47541117179200915	0.0	0.654527294347813	-0.47005549657222895	0.0	0.6378540190044333	-0.4116475504757451	0.0	0.9323646385745087	-0.288415611453777	0.0	1.0115367124616297	-0.2945393827825134	0.0	0.9835315783940904	-0.3155779205084215	0.0	0.927657407814777	-0.28813759372293535	0.0	0.8893023996296152	-0.35077919424923804	0.0	0.8945133309636143	-0.4020938998907104	0.0	0.9225799115681277	-0.28146746421835367	0.0	0.881900767710732	-0.34943803547364943	0.0	0.8778824062635573	-0.41044561357376474	0.0
121	4.050138888888889	0.774735617132415	-0.3103701335402607	0.0	0.7734434814080691	-0.3120071484267163	0.0	0.7554682489087341	-0.44416998561304233	0.0	0.655069280956893	-0.4959027134242791	0.0	0.6665978221252196	-0.5533157516260693	0.0	0.6584849114526798	-0.5455328775761416	0.0	0.6375237670917616	-0.4923093617832128	0.0	0.7736244562415757	-0.31083250871576906	0.0	0.7505064221904338	-0.4374025170794178	0.0	0.6610178332545803	-0.49132884599201954	0.0	0.6666121565646685	-0.5468380866162822	0.0	0.6688575289556375	-0.5424072236702966	0.0	0.641105098049437	-0.48761409315660215	0.0	0.9211904916585322	-0.29151993035920215	0.0	1.0016278885563423	-0.28702787250870554	0.0	0.9754651022627651	-0.3113022109332664	0.0	0.9188511198378185	-0.2908939405962322	0.0	0.9042780743953898	-0.36162167102118115	0.0	0.9305454117955785	-0.40726981742013835	0.0	0.913225283474365	-0.28676650328385805	0.0	0.8920969449642667	-0.36222687758707384	0.0	0.9044094016573004	-0.420813849214467	0.0
122	4.083611111111111	0.7681851969440466	-0.35081631861831486	0.0	0.7670851987779472	-0.35081168123921097	0.0	0.7541675939969122	-0.483000158212311	0.0	0.6664386088973172	-0.5623284429528604	0.0	0.6873045408572915	-0.6178052627660747	0.0	0.678926816291883	-0.6123588712533948	0.0	0.6485136705606028	-0.5644833285156216	0.0	0.7682171018464833	-0.3508630849915953	0.0	0.7501413502346315	-0.47970814674305934	0.0	0.6741649425292138	-0.5592982506124108	0.0	0.6881241788538273	-0.6125869890075811	0.0	0.6900673996711116	-0.6089208609046095	0.0	0.6523843385432898	-0.5617488578293344	0.0	0.905929124342738	-0.30187540677351987	0.0	0.9863097232125365	-0.28643189559662474	0.0	0.9621596038644195	-0.3136043095745042	0.0	0.9053407274121494	-0.30068854638209375	0.0	0.9154843083005624	-0.36993933258829814	0.0	0.959505362180179	-0.40484337763563666	0.0	0.9007947773304998	-0.2993037047615572	0.0	0.9012694137266314	-0.3718791311492092	0.0	0.9300673913461108	-0.42107949891434754	0.0
123	4.117083333333333	0.7634771914155868	-0.3953390269748782	0.0	0.7623940995447782	-0.39408883337549816	0.0	0.7534683316909487	-0.5259769378448446	0.0	0.6811096611011304	-0.6250342581045846	0.0	0.7082603070435541	-0.6759617878819222	0.0	0.6997170551843412	-0.6729523932161585	0.0	0.6632059475499922	-0.6323901979870128	0.0	0.7645743060104406	-0.39471424800569654	0.0	0.750517101126847	-0.5252798361811186	0.0	0.6899041425702654	-0.6234877754215852	0.0	0.7122684055617097	-0.6717208111823234	0.0	0.7121065058845789	-0.6685185936113458	0.0	0.6672641198322704	-0.6307863481198067	0.0	0.8876508307450375	-0.3197356276004934	0.0	0.9668533003195552	-0.29326905073596776	0.0	0.9446735817515651	-0.3231481881873805	0.0	0.8883517803222941	-0.31819776690835655	0.0	0.9205450712730409	-0.3769375655717667	0.0	0.9771678042236929	-0.39730155417818863	0.0	0.885694902850034	-0.31897263045494983	0.0	0.906966241079573	-0.3794171252447115	0.0	0.9500650712861084	-0.4131657544329859	0.0
124	4.150555555555556	0.7602900352005665	-0.4429511384220778	0.0	0.7592760164967917	-0.44114824195159535	0.0	0.7538601078089165	-0.572465145046887	0.0	0.6963110644462556	-0.6833717937200963	0.0	0.7264119722682776	-0.7279926493048211	0.0	0.7176845754301365	-0.7271656958039793	0.0	0.6786751376270092	-0.6946334013506509	0.0	0.761910582251841	-0.44176293550621837	0.0	0.7516077816456341	-0.5731640093600521	0.0	0.7042595395306577	-0.6822071297718079	0.0	0.7334746172562331	-0.7241773849365138	0.0	0.7299581014438302	-0.7212358329931344	0.0	0.6817583977260319	-0.6926944015904836	0.0	0.867679534947229	-0.34473520931667795	0.0	0.9445730800673285	-0.3075302240803687	0.0	0.9242163052060046	-0.3399370322300244	0.0	0.8692773909403059	-0.34326696907624815	0.0	0.9180563739445015	-0.3840381131171269	0.0	0.9815134554432637	-0.38768450753914907	0.0	0.8683588206508631	-0.3451289067760371	0.0	0.9068484330703022	-0.3864919797410518	0.0	0.9600592344478386	-0.4008307701071584	0.0
125	4.184027777777778	0.7579802008509381	-0.4923001439857571	0.0	0.7571881960802047	-0.49059008221250483	0.0	0.755526496160254	-0.6208233317815529	0.0	0.7093432530906661	-0.7363950287298299	0.0	0.7395005781482124	-0.7738218015301739	0.0	0.730326155231105	-0.7746794519036506	0.0	0.6922171751628208	-0.749727734197296	0.0	0.7596141832447395	-0.4908656891066356	0.0	0.7534930879327397	-0.6218389058303443	0.0	0.7149072439931448	-0.7346717738395339	0.0	0.7484752179685841	-0.7701191429475319	0.0	0.7410629669245522	-0.7674670802999336	0.0	0.6932212987445422	-0.7465804476445895	0.0	0.8475679276280714	-0.3758718952806063	0.0	0.9208674563054233	-0.3285971562696832	0.0	0.9022064415820724	-0.36326592449860434	0.0	0.8494832909934596	-0.3747950145187063	0.0	0.9079979009866591	-0.39261697648664773	0.0	0.9726367338688906	-0.37905989257107553	0.0	0.849695705693169	-0.37686114255590003	0.0	0.8996701932768144	-0.3950199513371454	0.0	0.9576001958228789	-0.388692002934306	0.0
126	4.2175	0.7557233063966975	-0.5414428558938574	0.0	0.7552447113404528	-0.5401489587539324	0.0	0.7583352963450496	-0.6684578391869326	0.0	0.7184896883153133	-0.7828501870707748	0.0	0.7470602659709814	-0.8129400486000992	0.0	0.7368848143280766	-0.8147676633555962	0.0	0.7021035503585182	-0.7962819368086433	0.0	0.7572447354368749	-0.5400187417588519	0.0	0.7561282367535657	-0.669036492532424	0.0	0.7212797270453737	-0.7803270322002676	0.0	0.7565023660923356	-0.8093168764852073	0.0	0.7453625415318627	-0.8072394134388212	0.0	0.700601331195413	-0.792065851546628	0.0	0.8289175039196182	-0.4112602318629825	0.0	0.8972078157106352	-0.355123971593558	0.0	0.8803616712414928	-0.39166037840851553	0.0	0.830284721398897	-0.41061002442516015	0.0	0.8917059331160617	-0.40363314079873147	0.0	0.9525436797021252	-0.3739043515427928	0.0	0.8312076048105643	-0.41262692623932407	0.0	0.8859773744562393	-0.40637559597151873	0.0	0.9429503537774455	-0.3806129997998096	0.0
127	4.250972222222222	0.7527602797963129	-0.58758911879028	0.0	0.7526127174601172	-0.5867132136111457	0.0	0.7619393761956829	-0.7120214606355633	0.0	0.7236094202114481	-0.8214385260346413	0.0	0.7502712331061404	-0.8447467874511251	0.0	0.7384784660154161	-0.8466366882375483	0.0	0.7081248761831731	-0.8334391958813303	0.0	0.754389254122719	-0.5862462101235796	0.0	0.7592229122981695	-0.7117900489553216	0.0	0.7240676103272805	-0.8183373335430261	0.0	0.7584687794547559	-0.8412413188216304	0.0	0.7442766350925627	-0.8401453424126896	0.0	0.7043027639746808	-0.8288642256417091	0.0	0.8131008260004333	-0.44790192023211234	0.0	0.8751153945881591	-0.3848572189804099	0.0	0.8607031143452987	-0.4227121710696051	0.0	0.8129687780344232	-0.4474655215443749	0.0	0.8714560243565397	-0.4171253569523525	0.0	0.9247489319285648	-0.37332322083563635	0.0	0.8146562096147207	-0.44972114965737453	0.0	0.8679135558860192	-0.4206275515066751	0.0	0.9190281041744951	-0.3783489164411114	0.0
128	4.2844444444444445	0.7485945471900423	-0.6272572742634529	0.0	0.748827618736381	-0.6266984879092996	0.0	0.7660720448036479	-0.7477978018821568	0.0	0.7256862594331799	-0.8509394897881405	0.0	0.7507042584983433	-0.8688015982195618	0.0	0.7371351642091475	-0.869869014114816	0.0	0.7111217871033166	-0.8609784237893425	0.0	0.750617642173316	-0.6259771634330025	0.0	0.7625116453292695	-0.746702621473141	0.0	0.7244211802124879	-0.8474831332788325	0.0	0.7560364461253588	-0.8654369674391463	0.0	0.7396729619007589	-0.8656386101241116	0.0	0.7054144183160246	-0.8566623928601649	0.0	0.8009147300621526	-0.48194781076020277	0.0	0.8560919179091988	-0.4145116229547088	0.0	0.8450964842890833	-0.4529984519691323	0.0	0.798597991141037	-0.48140011462397	0.0	0.8499378042798956	-0.4318149679367551	0.0	0.8936099154041602	-0.3765609790708402	0.0	0.8013963293925624	-0.4844173874297347	0.0	0.8483469240987813	-0.43628164788342283	0.0	0.8904779967622861	-0.38116337514750104	0.0
